<svg width="751" height="957" viewBox="0 0 751 957" fill="none" xmlns="http://www.w3.org/2000/svg">
<path d="M406.758 541.469C415.694 544.131 422.51 554.393 429.78 559.955C449.25 574.855 499.786 601.895 502.934 625.993C500.302 628.139 497.58 629.909 494.43 631.213C494.222 628.801 495.204 626.213 495.176 623.731C495.058 613.705 477.992 603.343 471.02 598.233C453.322 585.259 425.78 569.071 410.402 554.597C408.892 550.315 407.436 545.967 406.758 541.469Z" fill="#93D7F0"/>
<path d="M410.401 554.598C425.779 569.072 453.321 585.26 471.019 598.234C477.991 603.344 495.057 613.706 495.175 623.732C495.203 626.214 494.221 628.802 494.429 631.214C476.779 624.852 460.245 617.526 444.095 607.928C439.727 605.334 416.045 589.206 414.409 588.906L414.599 589.434L415.283 588.732L414.535 588.738L414.109 593.224C413.625 581.748 409.795 563.888 410.401 554.598Z" fill="#36A9DF"/>
<path d="M414.106 593.222L414.532 588.737L415.28 588.73L414.596 589.432L414.406 588.904C416.042 589.204 439.724 605.333 444.092 607.927C460.242 617.525 476.776 624.85 494.426 631.212C484.542 643.248 472.546 642.352 458.756 637.876C468.08 663.648 450.186 665.024 428.732 659.824C423.108 677.678 411.478 673.506 396.102 670.904C398.502 662.986 397.254 654.548 399.384 646.688C400.864 641.228 404.422 636.22 406.454 630.902C411.064 618.844 412.618 605.95 414.106 593.222Z" fill="#2483BC"/>
<path d="M221.035 322.99C261.353 295.494 334.547 293.378 372.613 325.522C371.577 325.494 370.561 325.47 369.525 325.522C367.685 327.348 365.843 329.158 364.123 331.1C356.533 333.822 351.847 340.338 345.723 342.36C323.391 330.374 271.381 337.464 260.395 361.974C252.907 344.062 227.323 335.016 209.585 340.012C208.175 341.26 207.457 342.458 206.573 344.11L203.617 342.36C204.705 336.7 213.357 329.174 217.453 325.522C218.613 324.624 219.821 323.81 221.035 322.99Z" fill="#B6DFEC"/>
<path d="M221.035 322.99C261.353 295.494 334.547 293.378 372.613 325.522C371.577 325.494 370.561 325.47 369.525 325.522L368.691 325.296C359.017 322.604 350.285 317.138 340.577 314.298C297.869 301.804 240.935 304.252 209.585 340.012C208.175 341.26 207.457 342.458 206.573 344.11L203.617 342.36C204.705 336.7 213.357 329.174 217.453 325.522C218.613 324.624 219.821 323.81 221.035 322.99Z" fill="url(#paint0_linear_2459_140)"/>
<path d="M46.9198 99.4922C52.455 151.593 140.274 241.807 175.258 276.455L206.294 307.307C211.02 312.055 217.464 317.389 221.038 322.989C219.824 323.809 218.616 324.623 217.456 325.521C213.36 329.173 204.708 336.699 203.62 342.359L206.576 344.109C201.198 353.379 202.338 362.275 200.162 372.295H201.586V405.697C202.646 414.087 205.66 419.267 206.576 425.579C206.85 428.511 208.114 432.649 207.478 435.435C204.63 436.687 205.412 442.285 205.22 444.949L203.62 449.743L203.64 450.341C204.238 473.973 203.564 488.087 209.588 512.783C210.762 516.367 211.834 519.985 212.928 523.593L215.018 528.647C216.86 534.083 218.922 539.403 221.038 544.735C222.152 547.175 223.29 549.605 224.364 552.063C213.334 563.801 197.978 562.977 188.278 550.329C172.766 553.913 148.474 549.217 147.076 531.109C129.512 531.093 119.358 525.135 114.468 507.581C108.172 506.081 101.662 503.775 96.3222 500.035C91.0522 496.345 70.7582 474.863 87.8362 474.401L88.5322 475.313L89.6522 474.305L89.7362 474.293C70.1402 471.301 48.3568 453.113 46.4998 432.587C45.9582 426.603 51.9544 429.107 55.7946 429.677C37.8006 419.367 26.9836 403.037 26.255 381.837C29.6036 381.529 32.7244 381.479 36.0672 381.837C19.2748 367.717 11.6536 350.133 14.3004 327.861C17.155 329.217 19.9128 331.681 22.659 333.371C2.95681 310.035 -6.7362 281.643 5.248 251.893C11.2076 257.629 15.9418 263.731 22.659 268.745C2.07581 243.955 -5.06159 205.169 10.8608 176.173C17.7344 182.649 24.0868 189.685 31.1578 195.951C20.0094 165.929 20.5488 146.225 33.9236 116.969C37.162 110.379 41.4522 104.419 46.9198 99.4922Z" fill="#B6DFEC"/>
<path d="M171.121 325.52C170.771 330.822 170.455 337.114 171.121 342.358C169.261 339.024 165.449 338.008 162.109 336.562V335.248C162.513 335.066 169.249 327.086 171.121 325.52Z" fill="#C6E5F0"/>
<path d="M166.163 398.996C168.975 402.888 170.879 407.268 173.733 411.122C169.925 412.004 162.231 413.246 158.891 410.954C159.527 406.474 164.755 403.438 166.163 398.996Z" fill="#DBEDF3"/>
<path d="M150.526 395.077C158.818 394.317 157.846 395.403 155.084 401.283C153.704 404.225 154.174 409.015 152.324 411.123C146.526 406.177 136.846 395.501 150.526 395.077Z" fill="#C6E5F0"/>
<path d="M166.16 376.512C166.782 381.474 164.124 390.51 169.24 393.414C164.158 392.428 159.124 392.344 154.024 391.06C153.782 381.408 158.606 381.09 166.16 376.512Z" fill="#DBEDF3"/>
<path d="M155.742 321.972C157.844 322.596 160.054 322.356 162.108 322.99C162.152 327.08 162.176 331.162 162.108 335.25V336.564C156.32 334.506 146.728 332.04 140.648 331.1C145.038 326.676 148.894 321.75 155.742 321.972Z" fill="#DBEDF3"/>
<path d="M152.324 298.887C155.206 300.943 157.704 304.191 159.77 307.049C152.582 309.763 157.634 311.411 157.278 317.195L156.658 317.969C150.808 314.609 139.684 308.983 138.414 301.845C142.774 300.655 148.324 300.809 152.324 298.887Z" fill="#DBEDF3"/>
<path d="M166.162 358.301C166.132 362.303 167.234 373.461 166.162 376.513L165.696 374.967C160.166 373.195 154.348 372.099 148.758 370.377C152.73 353.293 162.416 361.097 166.162 358.301Z" fill="#C6E5F0"/>
<path d="M129.473 345.977C144.771 352.395 148.263 351.299 138.409 366.649C131.645 362.899 120.361 352.935 129.473 345.977Z" fill="#C6E5F0"/>
<path d="M193.586 443.148C175.956 454.514 164.926 448.218 182.63 429.676C186.536 437.898 196.498 443.216 205.214 444.948L203.614 449.742C202.662 446.376 201.81 440.08 193.586 443.148Z" fill="#C6E5F0"/>
<path d="M143.234 345.976C160.244 329.306 161.96 343.176 166.16 347.794C167.182 348.976 167.342 350.008 167.63 351.486C163.27 358.114 154.494 352.426 147.07 351.486C145.734 349.698 144.506 347.81 143.234 345.976Z" fill="#C6E5F0"/>
<path d="M175.131 414.109C175.331 418.267 176.629 426.303 181.169 427.895C174.213 430.007 169.683 432.051 162.109 431.727C160.071 428.347 158.421 425.041 157.273 421.259L157.915 420.239C159.175 418.229 160.315 416.703 162.109 415.135C166.317 414.901 171.305 416.075 175.131 414.109Z" fill="#C6E5F0"/>
<path d="M118.146 433.174C130.544 432.596 141.484 428.692 152.32 422.918C154.652 431.74 157.552 434.642 166.162 436.89C154.522 440.948 142.298 449.82 129.474 449.744C122.128 448.626 119.044 445.208 115.984 438.494C116.568 436.624 117.278 434.93 118.146 433.174Z" fill="#DBEDF3"/>
<path d="M85.7307 298.887C93.6107 307.281 107.195 318.037 118.145 321.973C117.173 334.719 122.863 337.943 122.725 345.979C108.523 343.355 87.0267 335.305 83.4927 319.635C83.3547 318.213 83.4047 316.883 83.4927 315.465C82.0627 308.453 82.2267 305.109 85.7307 298.887Z" fill="#DBEDF3"/>
<path d="M130.694 452.101C143.854 452.567 162.818 441.685 165.706 442.785C174.098 453.291 172.168 449.415 184.12 454.507C177.406 456.365 172.84 462.111 166.762 465.259C161.256 468.113 153.69 470.087 148.756 473.097C147.004 474.375 145.276 475.031 143.234 475.733C132.014 471.425 127.688 463.987 130.694 452.101Z" fill="#DBEDF3"/>
<path d="M106.769 403.773C110.705 407.989 135.829 404.953 140.649 403.773C143.531 411.271 149.031 413.599 155.743 417.155C140.565 427.691 131.951 426.081 118.145 431.727C106.125 426.325 91.395 403.845 106.769 403.773Z" fill="#DBEDF3"/>
<path d="M85.7289 268.746C90.5489 270.712 101.075 281.702 106.383 285.31C117.411 292.806 124.051 293.904 135.573 298.886C120.751 301.426 117.907 304.602 118.143 319.634C103.139 306.94 68.1369 293.258 85.7289 268.746Z" fill="#DBEDF3"/>
<path d="M96.1492 232.445C99.0192 234.407 111.475 269.713 130.695 282.421C124.651 284.461 125.649 287.509 124.875 292.889L120.893 291.817C102.443 277.787 65.5492 256.323 96.1492 232.445Z" fill="#DBEDF3"/>
<path d="M87.5581 331.098C94.5461 341.096 110.834 348.856 122.724 347.794C122.15 362.278 134.744 367.566 132.576 372.2C124.434 375.906 104.808 368.336 96.1481 366.648C92.6181 364.612 90.0621 362.586 87.5581 359.292C83.4861 348.284 80.6901 342.382 87.5581 331.098Z" fill="#DBEDF3"/>
<path d="M91.7805 368.516C104.033 374.862 117.035 376.738 130.695 376.514C130.145 385.36 132.659 391.13 140.649 395.078C139.937 397.328 139.295 399.636 138.409 401.822C125.029 402.976 119.279 402.376 106.769 401.822C98.4345 398.756 95.6125 395.164 91.7805 387.382C89.8005 380.662 89.7005 375.31 91.7805 368.516Z" fill="#DBEDF3"/>
<path d="M193.589 443.151C201.813 440.083 202.665 446.379 203.617 449.745L203.637 450.343C204.235 473.975 203.561 488.089 209.585 512.785H207.475L207.111 512.469C205.717 514.271 202.373 517.481 201.583 519.439C188.511 526.967 173.841 517.655 178.659 501.225H173.733C159.249 500.221 143.387 492.369 150.523 475.735C160.897 468.843 169.969 467.907 184.123 456.949C185.857 459.637 196.011 471.825 198.697 465.371L198.371 464.637C194.731 462.923 191.999 460.665 190.553 456.771C186.259 445.217 194.281 449.031 195.885 445.107C194.043 444.847 192.645 446.477 190.863 446.265C191.707 445.149 192.625 444.159 193.589 443.151Z" fill="#DBEDF3"/>
<path d="M173.734 501.225C180.376 499.383 192.088 483.457 198.12 477.947C201.172 475.157 200.406 479.187 199.472 481.067C195.726 488.611 186.932 498.721 178.66 501.225H173.734Z" fill="#B6DFEC"/>
<path d="M51.0647 125.832C56.7347 147.608 71.9353 174.818 85.7673 193.352C90.7053 199.968 109.883 226.242 114.463 230.694C117.579 231.48 209.001 315.758 217.451 325.522C213.355 329.174 204.703 336.7 203.615 342.36L206.571 344.11C201.193 353.38 202.333 362.276 200.157 372.296H201.581V405.698C202.641 414.088 205.655 419.268 206.571 425.58C206.845 428.512 208.109 432.65 207.473 435.436C204.625 436.688 205.407 442.286 205.215 444.95C196.499 443.218 186.537 437.9 182.631 429.678V428.142L181.169 427.896C176.629 426.304 175.331 418.268 175.131 414.11C175.307 413.362 175.339 412.836 175.343 412.078L173.731 411.124C170.877 407.27 168.973 402.89 166.161 398.998C167.221 397.178 168.939 395.56 169.241 393.416C164.125 390.512 166.783 381.476 166.161 376.514C167.233 373.462 166.131 362.304 166.161 358.302C170.439 355.852 170.389 356.04 167.631 351.488C167.343 350.01 167.183 348.978 166.161 347.796C167.335 345.648 169.405 344.086 171.121 342.36C170.455 337.116 170.771 330.824 171.121 325.522C169.589 321.976 162.737 319.92 159.765 317.194C161.023 314.758 162.207 312.638 163.999 310.538L159.765 307.048C157.699 304.19 155.201 300.942 152.319 298.886C147.239 294.384 144.205 288.99 139.719 284.094C135.147 279.102 129.891 275.894 125.501 270.374C111.283 252.496 106.131 238.334 94.8813 220.474C76.9413 191.992 46.0605 166.244 51.0647 125.832Z" fill="#DBEDF3"/>
<path d="M200.161 372.297H201.585V405.699C199.749 399.651 198.991 378.745 200.161 372.297Z" fill="#B6DFEC"/>
<path d="M114.461 230.691C117.577 231.477 208.999 315.755 217.449 325.519C213.353 329.171 204.701 336.697 203.613 342.357C188.811 370.245 193.087 404.493 203.613 433.171C165.663 393.623 194.295 351.113 180.177 316.793C167.537 286.063 130.323 264.193 114.461 230.691Z" fill="#83CCE8"/>
<path d="M33.9236 116.969C35.7272 119.425 35.418 120.269 35.071 123.377C29.9456 169.273 42.0606 204.705 68.6462 241.779C72.9862 247.829 86.3302 261.009 85.7362 268.745C61.441 247.913 33.5642 204.783 13.0334 190.463C11.051 228.507 27.1496 264.669 52.3314 292.587C58.3872 299.303 74.2962 314.917 83.4982 315.463C83.4102 316.881 83.3602 318.211 83.4982 319.633C77.4502 322.959 71.4502 313.515 67.4082 314.155C74.2162 320.537 77.9082 317.999 82.8802 321.187C82.5342 324.079 87.7982 330.731 86.1182 332.131C80.8982 336.481 80.3522 356.825 87.5642 359.293C90.0682 362.587 92.6242 364.613 96.1542 366.649L95.5522 366.981C89.2842 370.409 86.9962 364.817 90.3422 369.051C90.3602 369.073 89.6442 373.143 89.4922 374.199C88.8242 378.799 88.9862 383.513 91.7862 387.381C95.6182 395.163 98.4402 398.755 106.774 401.821C113.8 407.903 133.02 400.959 138.612 402.435L139.006 403.207C131.148 405.679 107.082 403.537 106.774 403.773C91.4002 403.845 106.13 426.325 118.15 431.727V433.173C117.282 434.929 116.572 436.623 115.988 438.493C119.048 445.207 122.132 448.625 129.478 449.743L131.598 450.013L131.714 450.557L130.7 452.101C127.694 463.987 132.02 471.425 143.24 475.733C145.282 475.031 147.01 474.375 148.762 473.097L150.526 475.733C143.39 492.367 159.252 500.219 173.736 501.223H178.662C173.844 517.653 188.514 526.965 201.586 519.437C202.376 517.479 205.72 514.269 207.114 512.467L207.478 512.783H209.588C210.762 516.367 211.834 519.985 212.928 523.593L215.018 528.647C216.86 534.083 218.922 539.403 221.038 544.735C222.152 547.175 223.29 549.605 224.364 552.063C213.334 563.801 197.978 562.977 188.278 550.329C172.766 553.913 148.474 549.217 147.076 531.109C129.512 531.093 119.358 525.135 114.468 507.581C108.172 506.081 101.662 503.775 96.3222 500.035C91.0522 496.345 70.7582 474.863 87.8362 474.401L88.5322 475.313L89.6522 474.305L89.7362 474.293C70.1402 471.301 48.3568 453.113 46.4998 432.587C45.9582 426.603 51.9544 429.107 55.7946 429.677C37.8006 419.367 26.9836 403.037 26.255 381.837C29.6036 381.529 32.7244 381.479 36.0672 381.837C19.2748 367.717 11.6536 350.133 14.3004 327.861C17.155 329.217 19.9128 331.681 22.659 333.371C2.95681 310.035 -6.7362 281.643 5.248 251.893C11.2076 257.629 15.9418 263.731 22.659 268.745C2.07581 243.955 -5.06159 205.169 10.8608 176.173C17.7344 182.649 24.0868 189.685 31.1578 195.951C20.0094 165.929 20.5488 146.225 33.9236 116.969Z" fill="#83CCE8"/>
<path d="M201.586 519.439C202.376 517.481 205.72 514.271 207.114 512.469L207.478 512.785H209.588C210.762 516.369 211.834 519.987 212.928 523.595C210.282 523.463 207.8 523.325 205.22 522.655C204.024 521.563 202.812 520.497 201.586 519.439Z" fill="#DBEDF3"/>
<path d="M201.586 519.439C202.376 517.481 205.72 514.271 207.114 512.469L207.478 512.785C206.454 516.035 205.838 519.309 205.22 522.655C204.024 521.563 202.812 520.497 201.586 519.439Z" fill="#93D7F0"/>
<path d="M207.472 528.647C209.98 528.563 212.502 528.631 215.012 528.647C216.854 534.083 218.916 539.403 221.032 544.735C216.628 550.971 198.058 556.879 193.914 549.109C193.998 547.837 205.154 533.527 207.472 528.647Z" fill="#B6DFEC"/>
<path d="M148.755 499.457C150.747 500.247 152.423 502.643 154.535 503.627C163.633 507.863 166.315 502.859 173.729 512.783C166.467 518.219 156.019 520.763 147.069 519.437C137.013 519.419 128.411 516.571 120.891 509.675C130.035 507.293 140.609 504.201 148.755 499.457Z" fill="#B6DFEC"/>
<path d="M173.732 519.438C178.578 519.868 184.184 527.494 201.582 528.648C195.044 539.868 190.362 541.088 178.658 544.736C167.438 543.11 155.82 541.045 148.758 531.109C158.484 528.395 165.83 525.852 173.732 519.438Z" fill="#B6DFEC"/>
<path d="M124.878 475.735C136.528 474.309 143.076 485.751 147.074 494.945C136.404 498.385 127.158 499.169 115.986 497.695C104.89 495.341 96.3401 488.669 89.1641 480.183C101.214 479.199 112.952 477.683 124.878 475.735Z" fill="#B6DFEC"/>
<path d="M55.7891 435.434C60.1737 436.142 64.4037 437.814 68.7387 438.8C76.6007 440.59 112.993 442.228 113.539 442.582C113.945 442.844 122.869 454.87 124.875 456.946C125.321 461.586 125.485 466.308 126.809 470.798C97.6447 467.212 70.4647 465.95 55.7891 435.434Z" fill="#B6DFEC"/>
<path d="M33.9219 387.383C39.2579 388.319 44.3865 391.153 49.3693 393.191C65.9975 399.989 79.0785 400.895 95.1225 405.055C101.386 406.681 97.0545 415.277 98.4445 420.025C100.7 427.735 108.254 430.591 112.136 436.891C92.5945 437.539 69.7725 427.953 55.2903 415.571C49.0787 410.263 34.6315 395.943 33.9219 387.383Z" fill="#B6DFEC"/>
<path d="M390.248 340.012C388.248 319.234 386.272 279.636 390.664 259.96C399.396 220.848 423.624 206.496 456.016 188.308C542.496 139.754 617.644 100.313 695.162 34.002C706.016 24.7176 722.558 6.6972 733.026 0C733.624 1.843 734.21 3.5674 734.396 5.5026C745.05 32.102 735.042 81.665 714.852 102.467C720.386 98.2602 741.864 82.6468 747.73 82.1872C749.88 84.078 749.712 88.704 749.894 91.4588C752.626 132.696 739.514 143.988 721.872 174.246C731.012 170.258 740.646 166.698 750.154 163.7C753.598 191.126 742.42 218.418 723.278 237.882C720.454 240.752 716.446 243.13 714.344 246.568L714.54 247.278C718.292 246.428 721.46 239.964 725.3 240.816C727.18 243.702 725.858 250.518 725.166 253.824C717.738 289.234 698.998 295.89 675.882 315.464C680.584 313.88 689.18 307.836 687.418 317.246C683.098 340.302 668.652 356.264 648.484 366.65C651.666 366.358 654.666 366.434 657.85 366.65C653.916 391.344 636.668 408.648 613.616 416.196C614.362 447.2 583.096 459.91 556.246 462.414C558.914 484.348 529.776 494.22 512.746 496.164C506.46 516.732 486.638 521.602 467.638 523.594C458.076 549.75 424.73 548.29 404.082 535.644C404.934 537.392 406.382 539.594 406.76 541.47C407.438 545.968 408.894 550.316 410.404 554.598C409.798 563.888 413.628 581.748 414.112 593.224C412.624 605.952 411.07 618.846 406.46 630.904C404.428 636.222 400.87 641.23 399.39 646.69C397.26 654.55 398.508 662.988 396.108 670.906C393.232 673.406 393.784 722.93 370.82 731.97C364.198 734.578 357.288 731.108 351.222 728.532C346.472 752.242 328.676 777.746 304.304 783.738C302.23 779.032 300.966 773.976 299.538 769.044C299.418 769.148 299.298 769.25 299.18 769.356L298.6 769.89C292.98 775.006 288.822 781.918 283.702 787.586C269.712 803.07 256.248 810.208 238.14 819.346C220.684 803.452 219.716 774.316 217.456 752.252C212.024 756.83 205.738 760.974 199.136 763.628C189.668 740.362 185.882 707.454 197.646 684.624C144.298 685.982 229.498 592.358 242.754 581.408C235.482 572.484 229.938 562.09 224.364 552.064C223.29 549.606 222.152 547.176 221.038 544.736C218.922 539.404 216.86 534.084 215.018 528.648L212.928 523.594C211.834 519.986 210.762 516.368 209.588 512.784C203.564 488.088 204.238 473.974 203.64 450.342L203.62 449.744L205.22 444.95C205.412 442.286 204.63 436.688 207.478 435.436C208.114 432.65 206.85 428.512 206.576 425.58C205.66 419.268 202.646 414.088 201.586 405.698V372.296H200.162C202.338 362.276 201.198 353.38 206.576 344.11C207.46 342.458 208.178 341.26 209.588 340.012C227.326 335.016 252.91 344.062 260.398 361.974C271.384 337.464 323.394 330.374 345.726 342.36C351.85 340.338 356.536 333.822 364.126 331.1C365.846 329.158 367.688 327.348 369.528 325.522C370.564 325.47 371.58 325.494 372.616 325.522C379.062 329.788 384.692 334.666 390.248 340.012Z" fill="#83CCE8"/>
<path d="M252.317 593.223C256.343 596.301 265.891 602.361 268.827 605.319C261.607 608.463 254.245 611.003 246.781 613.503C235.821 602.363 238.375 609.127 251.947 593.651L252.317 593.223Z" fill="#C6E5F0"/>
<path d="M224.357 617.355L225.171 617.793C225.053 623.155 229.303 628.919 232.727 632.677C223.379 644.337 207.789 670.987 196.031 673.491C167.259 674.957 217.993 622.467 224.357 617.355Z" fill="#C6E5F0"/>
<path d="M426.362 496.164C435.318 506.964 445.584 515.378 456.848 523.594C436.296 539.872 410.674 530.21 397.32 509.676C407.174 506.84 418.22 502.62 426.362 496.164Z" fill="#B6DFEC"/>
<path d="M462.596 473.098C473.256 484.88 487.71 493.38 502.932 497.694C477.562 515.65 452.504 513.646 428.734 494.944C436.776 492.61 455.768 478.402 462.596 473.098Z" fill="#B6DFEC"/>
<path d="M465.242 470.799C473.292 466.791 487.134 451.377 494.43 444.949C501.412 451.537 539.23 460.039 550.064 462.413C533.808 491.673 489.964 488.133 465.242 470.799Z" fill="#B6DFEC"/>
<path d="M352.762 668.055L353.494 668.135C358.854 679.353 339.108 735.447 332.6 746.635C329.696 751.629 318.27 772.939 310.314 767.265C300.538 753.947 309.132 736.109 313.822 722.371C319.624 705.379 322.682 688.229 327.126 670.907C336.086 671.007 344.042 670.149 352.762 668.055Z" fill="#C6E5F0"/>
<path d="M525.152 415.137C547.93 420.643 579.162 426.419 602.298 421.261C575.014 462.553 535.002 453.189 494.426 444.951L504.252 435.437C497.652 433.277 463.378 427.919 465.898 422.141C469.14 420.329 502.328 430.137 508.102 431.729C514.228 426.599 518.746 420.065 525.152 415.137Z" fill="#B6DFEC"/>
<path d="M250.58 631.215C256.068 633.591 262.038 636.611 267.126 639.755C264.276 644.171 263.07 647.213 263.274 652.591C251.792 667.117 241.114 690.521 233.972 707.309C233.05 709.475 213.91 764.773 201.878 745.331C185.514 718.885 210.274 679.337 225.764 658.187C230.566 651.629 236.09 645.375 239.41 637.879C250.17 652.237 250.364 646.829 246.782 635.687C247.82 633.871 249.052 632.627 250.58 631.215Z" fill="#C6E5F0"/>
<path d="M364.125 657.893C346.507 628.049 335.877 594.507 355.793 561.975C375.199 530.273 396.125 580.441 390.435 609.745C389.119 616.527 385.251 624.247 386.619 631.215C393.287 653.117 394.081 711.571 367.345 722.957L366.555 723.229C356.413 721.373 364.263 672.839 364.125 657.893C359.179 656.293 354.713 652.549 351.221 648.849C335.921 655.785 326.797 645.407 319.947 645.607C314.703 645.761 314.326 686.847 310.312 691.501C310.629 677.659 315.942 659.215 317.23 644.307C328.594 646.237 339.503 653.275 351.221 648.849C355.419 652.009 359.553 655.279 364.125 657.893Z" fill="#93D7F0"/>
<path d="M371.211 581.406C374.539 581.762 374.615 585.218 375.183 587.94C370.911 596.472 372.947 619.568 367.345 635.684C360.377 622.49 359.467 617.494 362.157 602.65C362.079 599.384 360.831 585.948 362.783 583.646C371.077 582.406 356.587 616.058 368.069 618.574C373.347 614.808 366.031 590.33 371.211 581.406Z" fill="#B6DFEC"/>
<path d="M365.617 657.893C376.989 651.993 380.401 642.083 386.375 631.627L386.615 631.215C393.283 653.117 394.077 711.571 367.341 722.957C356.617 719.051 365.631 668.677 365.617 657.893Z" fill="#C6E5F0"/>
<path d="M596.212 239.37C605.602 242.79 718.28 193.928 739.112 179.832C716.486 230.818 681.426 254.904 629.154 275.082C616.422 279.998 602.314 286.068 588.75 287.932C592.282 272.642 592.834 251.36 596.212 239.37Z" fill="#B6DFEC"/>
<path d="M575.829 335.248C584.957 339.638 658.413 324.502 675.877 322.988C656.917 357.596 618.249 372.272 580.739 375.554C572.565 376.27 564.295 376.192 556.241 377.882C581.977 382.29 618.941 378.466 643.583 372.294C629.245 410.112 566.057 425.668 531.589 415.134L531.423 414.552L526.945 413.346C527.419 411.786 528.737 410.762 529.865 409.644L530.023 408.8C534.921 401.558 543.619 393.156 550.061 383.7C551.261 382.308 552.299 380.764 553.379 379.276C563.011 365.758 568.717 344.258 575.829 335.248Z" fill="#B6DFEC"/>
<path d="M594.352 187.649C596.944 187.325 644.568 160.971 648.448 158.623C670.576 145.225 691.59 129.729 712.778 114.909C721.398 108.881 731.344 104.229 739.116 97.0742C729.434 137.133 714.726 160.845 682.69 186.799C659.23 205.805 624.354 227.093 596.216 239.371C596.704 224.429 596.834 202.603 594.352 187.649Z" fill="#B6DFEC"/>
<path d="M588.751 291.817C617.111 289.677 690.747 269.369 711.253 257.199C698.509 286.331 665.328 309.247 636.85 320.343C623.75 325.445 589.209 334.927 575.829 333.371V335.249C568.717 344.259 563.011 365.759 553.379 379.277C552.299 380.765 551.261 382.309 550.061 383.701C539.021 380.205 508.983 381.571 488.575 375.185C485.819 374.643 486.599 373.439 488.575 372.295C489.403 367.737 494.775 360.503 499.231 359.293C498.235 359.059 497.823 358.905 497.117 358.153L497.287 357.507C499.021 356.395 500.945 356.139 502.931 355.727C501.595 355.739 499.827 356.077 498.695 355.375C500.349 350.185 505.725 335.027 511.479 333.371C508.657 332.955 509.525 332.193 511.479 331.099C527.117 328.711 565.769 321.587 580.213 322.989C582.991 312.769 584.847 301.627 588.751 291.817Z" fill="#B6DFEC"/>
<path d="M511.479 333.37C533.799 331.132 556.737 330.286 578.705 325.52C577.815 328.168 576.967 330.816 575.829 333.37V335.248C568.717 344.258 563.011 365.758 553.379 379.276C552.299 380.764 551.261 382.308 550.061 383.7C539.021 380.204 508.983 381.57 488.575 375.184C485.819 374.642 486.599 373.438 488.575 372.294C489.403 367.736 494.775 360.502 499.231 359.292C498.235 359.058 497.823 358.904 497.117 358.152L497.287 357.506C499.021 356.394 500.945 356.138 502.931 355.726C501.595 355.738 499.827 356.076 498.695 355.374C500.349 350.184 505.725 335.026 511.479 333.37Z" fill="#DBEDF3"/>
<path d="M502.931 355.727C512.169 355.745 558.897 353.987 561.451 355.109C559.619 359.719 508.335 357.777 499.231 359.293C498.235 359.059 497.823 358.905 497.117 358.153L497.287 357.507C499.021 356.395 500.945 356.139 502.931 355.727Z" fill="#93D7F0"/>
<path d="M488.575 372.297C501.661 373.225 515.167 376.193 528.351 377.587C536.425 378.439 545.607 377.467 553.379 379.279C552.299 380.767 551.261 382.311 550.061 383.703C539.021 380.207 508.983 381.573 488.575 375.187C485.819 374.645 486.599 373.441 488.575 372.297Z" fill="#B6DFEC"/>
<path d="M268.826 605.32C274.316 608.726 289.44 616.072 292.69 619.66C301.498 621.838 310.172 623.804 319.276 624.126C325.23 623.458 330.204 621.728 335.762 619.66C339.3 630.362 345.148 639.472 351.218 648.848C339.5 653.274 328.592 646.236 317.228 644.306C315.94 659.214 310.626 677.658 310.31 691.5C308.478 697.236 307.608 703.696 306.196 709.588C297.344 746.532 280.592 787.38 242.75 802.806C225.514 776.904 245.594 715.832 257.006 689.766C260.864 680.958 266.226 672.95 270.208 664.22C266.938 660.72 265.104 656.964 263.272 652.59C263.068 647.212 264.274 644.17 267.124 639.754C262.036 636.61 256.066 633.59 250.578 631.214C249.05 632.626 247.818 633.87 246.78 635.686C250.362 646.828 250.168 652.236 239.408 637.878C235.628 626.81 236.616 620.202 246.78 613.504C254.244 611.004 261.606 608.464 268.826 605.32Z" fill="#C6E5F0"/>
<path d="M292.69 619.66C301.498 621.838 310.172 623.804 319.276 624.126C309.134 626.216 299.48 626.05 289.21 625.994C279.856 626.61 270.454 630.364 267.124 639.754C262.036 636.61 256.066 633.59 250.578 631.214C256.384 624.944 276.412 625.604 287.302 622.516C288.542 621.376 291.136 620.46 292.69 619.66Z" fill="#93D7F0"/>
<path d="M268.83 605.32C274.32 608.726 289.444 616.072 292.694 619.66C301.502 621.838 310.176 623.804 319.28 624.126C309.138 626.216 299.484 626.05 289.214 625.994C279.86 626.61 270.458 630.364 267.128 639.754C262.04 636.61 256.07 633.59 250.582 631.214C249.054 632.626 247.822 633.87 246.784 635.686C250.366 646.828 250.172 652.236 239.412 637.878C235.632 626.81 236.62 620.202 246.784 613.504C254.248 611.004 261.61 608.464 268.83 605.32Z" fill="#7F5955"/>
<path d="M396.2 687.799C374.977 687.799 358.87 675.378 341.814 662.229C322.22 647.123 300.013 630 267.001 630C233.988 630 211.781 647.123 192.186 662.229C175.132 675.378 159.024 687.799 137.8 687.799C134.046 687.799 131 690.844 131 694.599C131 773.997 140.888 826.865 163.062 866.019C185.08 904.899 217.856 929.079 263.6 955.49C264.652 956.097 265.826 956.4 267 956.4C268.174 956.4 269.348 956.096 270.4 955.49C316.144 929.079 348.92 904.9 370.939 866.019C393.112 826.865 403 773.997 403 694.599C403.001 690.844 399.955 687.799 396.2 687.799ZM267.001 941.738C184.976 893.908 145.696 852.703 144.623 701.058C167.027 698.8 184.013 685.704 200.489 673.001L200.491 672.999L200.494 672.997C219.239 658.545 238.624 643.6 267.001 643.6C295.378 643.6 314.763 658.545 333.51 672.999C349.985 685.704 366.974 698.8 389.378 701.058C388.305 852.703 349.025 893.908 267.001 941.738Z" fill="#2483BC"/>
<path d="M267.001 941.738C184.976 893.908 145.696 852.703 144.623 701.058C167.027 698.8 184.013 685.704 200.489 673.001L200.491 672.999L200.494 672.997C219.239 658.545 238.624 643.6 267.001 643.6C295.378 643.6 314.763 658.545 333.51 672.999C349.985 685.704 366.974 698.8 389.378 701.058C388.305 852.703 349.025 893.908 267.001 941.738Z" fill="#C6E5F0"/>
<path d="M267.124 639.752C270.454 630.362 279.856 626.608 289.21 625.992L292.49 626.474L292.048 626.302C289.228 629.162 292.736 626.968 290.044 632.264C290.262 639.774 301.158 644.454 295.474 651.546L295.558 652.588L292.69 657.89C294.73 663.238 297.796 668.02 299.534 673.49C287.082 668.254 277.234 658.138 282.91 644.304C270.224 652.772 275.016 653.684 270.208 664.218C266.938 660.718 265.104 656.962 263.272 652.588C263.068 647.21 264.274 644.168 267.124 639.752Z" fill="#7F5955"/>
<path d="M319.277 624.126C325.231 623.458 330.205 621.728 335.763 619.66C339.301 630.362 345.149 639.472 351.219 648.848C339.501 653.274 328.593 646.236 317.229 644.306C302.499 644.154 305.141 647.072 295.559 652.59L295.475 651.548C301.159 644.456 290.263 639.776 290.045 632.266C292.737 626.97 289.229 629.164 292.049 626.304L292.491 626.476L289.211 625.994C299.481 626.05 309.135 626.216 319.277 624.126Z" fill="url(#paint1_linear_2459_140)"/>
<path d="M390.247 340.012C388.247 319.234 386.271 279.636 390.663 259.96C399.395 220.848 423.623 206.496 456.015 188.308C542.495 139.754 617.643 100.313 695.161 34.002C706.015 24.7176 722.557 6.6972 733.025 0C733.623 1.843 734.209 3.5674 734.395 5.5026C731.563 8.8484 732.895 12.5592 732.763 16.6988C730.673 81.976 664.621 141.658 613.543 172.858C607.123 176.782 600.953 181.676 594.353 185.214C589.219 168.19 587.551 156.966 580.217 139.68C566.527 146.622 552.551 157.836 539.769 163.7C532.003 163.83 453.369 202.248 441.615 209.292C383.819 243.92 400.167 309.954 392.155 365.514C390.709 357.454 393.213 347.666 390.247 340.012Z" fill="#B6DFEC"/>
<path d="M345.723 342.358C351.847 340.336 356.533 333.82 364.123 331.098C373.005 341.912 379.235 380.878 377.709 394.8C375.861 411.628 370.041 427.042 366.273 443.466C364.981 449.09 364.465 454.958 362.945 460.522C360.167 470.686 320.035 615.194 319.277 615.756L319.853 615.848C322.379 616.224 338.147 615.094 335.763 619.658C330.205 621.726 325.231 623.456 319.277 624.124C310.173 623.802 301.499 621.836 292.691 619.658C289.441 616.07 274.317 608.724 268.827 605.318C265.891 602.36 256.343 596.3 252.317 593.222C250.437 589.052 245.859 584.776 242.751 581.406C235.479 572.482 229.935 562.088 224.361 552.062C223.287 549.604 222.149 547.174 221.035 544.734C218.919 539.402 216.857 534.082 215.015 528.646L212.925 523.592C211.831 519.984 210.759 516.366 209.585 512.782C203.561 488.086 204.235 473.972 203.637 450.34L203.617 449.742L205.217 444.948C205.409 442.284 204.627 436.686 207.475 435.434C208.669 437.942 209.541 440.336 209.585 443.148C225.775 464.54 257.611 500.326 287.905 485.03C294.559 481.67 300.753 477.092 307.151 473.244C348.139 448.59 362.037 440.574 362.221 388.692C362.283 371.508 361.491 352.958 345.723 342.358Z" fill="#93D7F0"/>
<path d="M307.289 569.883C308.025 574.703 309.597 583.157 308.481 587.755L307.839 587.457L307.289 585.421C306.491 580.475 303.797 576.783 302.633 572.157C304.037 572.509 305.053 573.095 306.407 572.491L307.289 569.883Z" fill="#DBEDF3"/>
<path d="M287.305 503.379C290.303 505.323 292.633 510.911 294.955 513.773C298.383 518.005 305.437 520.013 307.293 525.345C300.391 525.335 287.893 508.881 287.305 503.379Z" fill="#B6DFEC"/>
<path d="M287.3 544.735C288.24 544.449 287.71 544.491 288.892 544.807L288.964 545.685C287.386 547.223 271.018 575.293 268.824 579.201C263.334 581.139 278.786 560.521 280.164 557.773C282.59 552.935 282.574 547.771 287.3 544.735Z" fill="#DBEDF3"/>
<path d="M317.227 491.41C319.921 493.462 319.223 498.226 319.275 501.222C323.575 504.562 335.789 510.332 337.707 513.202L335.761 515.062L334.931 515.302C319.095 506.144 318.029 505.648 317.227 491.41Z" fill="#DBEDF3"/>
<path d="M250.575 540.274C233.145 519.266 243.449 528.8 249.561 515.634C252.119 510.122 251.547 505.284 252.557 499.578C259.035 505.048 246.251 524.088 242.747 528.646C246.117 532.384 248.441 535.718 250.575 540.274Z" fill="#DBEDF3"/>
<path d="M250.578 540.273C253.812 542.627 256.254 545.751 258.196 540.793C265.332 522.583 284.672 506.609 286.734 497.509L287.34 496.941L288.06 497.163C289.596 503.715 274.484 517.397 270.918 522.247C265.81 529.191 262.328 537.311 257.974 544.733C258.042 546.953 259.356 554.145 258.834 555.485C255.822 554.923 255.564 545.703 250.578 540.273Z" fill="#DBEDF3"/>
<path d="M205.217 444.948C205.409 442.284 204.627 436.686 207.475 435.434C208.669 437.942 209.541 440.336 209.585 443.148C206.633 514.622 237.173 608.28 319.277 615.756L319.853 615.848C322.379 616.224 338.147 615.094 335.763 619.658C330.205 621.726 325.231 623.456 319.277 624.124C310.173 623.802 301.499 621.836 292.691 619.658C289.441 616.07 274.317 608.724 268.827 605.318C265.891 602.36 256.343 596.3 252.317 593.222C250.437 589.052 245.859 584.776 242.751 581.406C235.479 572.482 229.935 562.088 224.361 552.062C223.287 549.604 222.149 547.174 221.035 544.734C218.919 539.402 216.857 534.082 215.015 528.646L212.925 523.592C211.831 519.984 210.759 516.366 209.585 512.782C203.561 488.086 204.235 473.972 203.637 450.34L203.617 449.742L205.217 444.948Z" fill="#36A9DF"/>
<path d="M260.392 361.975C271.378 337.465 323.388 330.375 345.72 342.361C361.488 352.961 362.28 371.511 362.218 388.695C362.034 440.577 348.136 448.593 307.148 473.247C300.75 477.095 294.556 481.673 287.902 485.033C257.608 500.329 225.772 464.543 209.582 443.151C209.538 440.339 208.666 437.945 207.472 435.437C208.108 432.651 206.844 428.513 206.57 425.581C205.654 419.269 202.64 414.089 201.58 405.699V372.297H200.156C202.332 362.277 201.192 353.381 206.57 344.111C207.454 342.459 208.172 341.261 209.582 340.013C227.32 335.017 252.904 344.063 260.392 361.975Z" fill="#EAEEEF"/>
<path d="M317.227 376.514C320.569 376.092 323.777 376.264 327.121 376.514C326.119 378.41 324.537 378.792 322.641 379.278L319.275 380.384C319.591 379.076 319.955 378.412 319.543 377.092L317.227 376.514Z" fill="#155382"/>
<path d="M295.562 391.062C294.552 393.682 293.442 396.293 292.694 398.999C291.558 402.237 290.562 405.654 289.214 408.802L288.816 407.996C284.868 405.796 291.05 392.416 295.562 391.062Z" fill="#B6DFEC"/>
<path d="M327.119 376.514C335.819 376.59 331.011 370.91 322.639 391.062C321.507 390.376 320.541 389.904 319.273 389.476C321.331 386.946 323.385 382.488 322.639 379.278C324.535 378.792 326.117 378.41 327.119 376.514Z" fill="#2483BC"/>
<path d="M245.107 417.155C241.671 392.785 249.613 380.407 232.727 354.547C246.915 364.949 249.143 389.491 248.261 405.697L247.557 405.081C247.303 401.653 247.531 397.413 246.475 394.169L245.913 394.125C245.031 396.087 245.803 411.811 245.107 417.155Z" fill="#C6E5F0"/>
<path d="M292.691 398.996C303.087 404.172 302.251 403.732 313.195 401.82C308.139 407.032 297.119 413.834 289.659 409.994L289.211 408.8C290.559 405.652 291.555 402.234 292.691 398.996Z" fill="#2483BC"/>
<path d="M209.582 340.012C227.32 335.016 252.904 344.062 260.392 361.974C226.098 340.972 213.928 332.76 201.58 372.296H200.156C202.332 362.276 201.192 353.38 206.57 344.11C207.454 342.458 208.172 341.26 209.582 340.012Z" fill="#C8A67F"/>
<path d="M203.617 376.512C221.047 382.454 243.289 377.366 238.137 405.696C222.423 408.586 213.299 398.878 215.015 383.7C211.047 381.656 206.889 379.604 203.617 376.512Z" fill="#0D3859"/>
<path d="M229.055 387.383C233.735 387.371 233.843 389.489 232.731 393.417C229.719 392.627 229.351 390.147 229.055 387.383Z" fill="#FFE5D7"/>
<path d="M299.531 381.836C305.273 379.632 311.303 378.152 317.225 376.512L319.542 377.09C319.954 378.41 319.589 379.074 319.273 380.382L322.639 379.276C323.385 382.486 321.331 386.944 319.273 389.474C320.541 389.902 321.507 390.374 322.639 391.06C319.789 394.974 317.027 398.808 313.191 401.82C302.247 403.732 303.083 404.172 292.688 398.996C293.436 396.29 294.546 393.68 295.556 391.06C296.324 387.404 297.293 384.856 299.531 381.836Z" fill="#0D3859"/>
<path d="M322.645 379.277C323.391 382.487 321.337 386.945 319.279 389.475C308.801 390.365 312.735 383.715 319.279 380.383L322.645 379.277Z" fill="#EAEEEF"/>
<path d="M245.109 417.155C245.805 411.811 245.033 396.087 245.915 394.125L246.477 394.169C247.533 397.413 247.305 401.653 247.559 405.081L248.263 405.697V415.135C265.057 410.841 278.411 411.759 285.295 429.677C275.699 442.149 268.865 457.935 264.995 473.097C254.781 449.561 247.839 447.137 245.109 417.155Z" fill="url(#paint2_linear_2459_140)"/>
<path d="M256.367 417.156C266.951 417.41 273.395 420.196 279.313 429.678C275.495 437.318 270.721 444.266 267.121 452.102C266.437 453.728 265.703 455.334 264.993 456.948C258.467 445.212 250.713 433.196 249.633 419.55C251.859 418.582 254.047 417.842 256.367 417.156Z" fill="#DBEDF3"/>
<path d="M260.392 361.975C271.378 337.465 323.388 330.375 345.72 342.361C361.488 352.961 362.28 371.511 362.218 388.695C362.034 440.577 348.136 448.593 307.148 473.247C300.75 477.095 294.556 481.673 287.902 485.033C257.608 500.329 225.772 464.543 209.582 443.151C209.538 440.339 208.666 437.945 207.472 435.437C208.108 432.651 206.844 428.513 206.57 425.581C213.98 446.793 243.696 481.285 268.824 481.793C293.334 453.305 327.168 451.583 341.618 404.279C346.512 388.259 346.616 369.421 333.56 357.475C330.214 354.413 325.538 352.111 323.654 347.797C301.95 341.727 277.688 347.127 261.002 362.361L260.392 361.975Z" fill="#C8A67F"/>
<path d="M323.658 347.797C358.634 353.537 358.676 386.197 352.872 415.507C348.186 439.167 331.28 450.055 312.582 462.411C298.934 471.431 286.234 482.953 268.828 481.793C293.338 453.305 327.172 451.583 341.622 404.279C346.516 388.259 346.62 369.421 333.564 357.475C330.218 354.413 325.542 352.111 323.658 347.797Z" fill="#DBEDF3"/>
<path d="M539.768 163.7C552.55 157.836 566.526 146.622 580.216 139.68C587.55 156.966 589.218 168.19 594.352 185.214V187.65C596.834 202.604 596.704 224.43 596.216 239.372C592.838 251.362 592.286 272.644 588.754 287.934C588.872 289.278 588.94 290.468 588.754 291.818C584.85 301.628 582.994 312.77 580.216 322.99C565.772 321.588 527.12 328.712 511.482 331.1C509.528 332.194 508.66 332.956 511.482 333.372C505.728 335.028 500.352 350.186 498.698 355.376C499.83 356.078 501.598 355.74 502.934 355.728C500.948 356.14 499.024 356.396 497.29 357.508L497.12 358.154C497.826 358.906 498.238 359.06 499.234 359.294C494.778 360.504 489.406 367.738 488.578 372.296C486.602 373.44 485.822 374.644 488.578 375.186C508.986 381.572 539.024 380.206 550.064 383.702C543.622 393.158 534.924 401.56 530.026 408.802L529.868 409.646C528.74 410.764 527.422 411.788 526.948 413.348L531.426 414.554L531.592 415.136C529.63 414.734 527.676 414.318 525.666 414.31L525.156 415.136C518.75 420.064 514.232 426.598 508.106 431.728C502.332 430.136 469.144 420.328 465.902 422.14C463.382 427.918 497.656 433.276 504.256 435.436L494.43 444.95C487.134 451.378 473.292 466.792 465.242 470.8L462.598 473.098C455.77 478.402 436.778 492.61 428.736 494.944L426.366 496.164C418.224 502.62 407.178 506.84 397.324 509.676C383.966 493.95 370.864 459.38 371.21 438.494C375.442 430.576 381.45 423.654 385.94 415.866C401.676 388.578 410.648 358.5 413.182 327.168C414.696 308.444 413.286 290.434 419.278 272.228C434.518 225.908 496.004 185.544 539.768 163.7Z" fill="#DBEDF3"/>
<path d="M426.363 496.165C423.615 493.011 408.187 475.097 408.321 472.207C415.527 479.265 421.785 487.579 428.733 494.945L426.363 496.165Z" fill="#93D7F0"/>
<path d="M462.594 473.096C454.238 466.654 438.394 451.466 433.578 442.074C443.544 452.14 454.95 461.016 465.238 470.798L462.594 473.096Z" fill="#93D7F0"/>
<path d="M523.648 236.38C535.66 231.13 580.798 206.85 590.324 205.43L591.05 205.812C588.852 210.576 533.412 233.424 523.648 239.372C523.03 238.16 523.016 237.628 523.648 236.38Z" fill="#93D7F0"/>
<path d="M519.557 298.885C532.043 295.275 572.991 285.259 585.405 284.605C572.787 293.507 536.305 296.951 519.557 301.843C518.671 301.177 518.857 301.275 518.617 300.293L519.557 298.885Z" fill="#93D7F0"/>
<path d="M523.649 268.746C543.653 261.802 563.689 253.56 583.445 246.876C585.145 246.3 591.551 245.3 587.727 248.46C583.335 252.088 532.457 268.634 523.649 271.486C522.751 270.854 522.731 271.11 522.523 269.938L523.649 268.746Z" fill="#93D7F0"/>
<path d="M580.211 163.699C568.707 182.591 537.719 195.097 519.553 208.019L518.219 206.375C523.933 201.107 531.331 197.301 537.737 192.891C551.533 183.391 566.273 172.755 580.211 163.699Z" fill="#93D7F0"/>
<path d="M525.157 415.136C518.307 412.744 483.041 405.89 480.805 401.082L481.453 400.338C489.465 398.024 520.595 410.698 530.027 408.802L529.869 409.646C528.741 410.764 527.423 411.788 526.949 413.348L531.427 414.554L531.593 415.136C529.631 414.734 527.677 414.318 525.667 414.31L525.157 415.136Z" fill="#93D7F0"/>
<path d="M386.617 438.495C407.759 414.267 424.545 361.925 426.303 331.077C427.301 313.541 425.005 296.913 430.063 279.635C439.497 247.409 457.061 235.409 480.395 215.335C490.453 206.681 501.035 196.863 512.743 190.465C514.843 195.665 515.947 201.257 518.223 206.377L519.557 208.021C518.639 210.339 521.983 233.623 523.647 236.381C523.015 237.629 523.029 238.161 523.647 239.373C524.193 244.479 522.319 266.677 523.273 268.559L523.647 268.747L522.521 269.939C522.729 271.111 522.749 270.855 523.647 271.487L522.367 271.873C521.917 273.523 519.569 297.485 519.557 298.887L518.617 300.295C518.857 301.277 518.671 301.179 519.557 301.845C518.593 302.949 510.731 328.589 510.535 330.677L511.481 331.101C509.527 332.195 508.659 332.957 511.481 333.373C505.727 335.029 500.351 350.187 498.697 355.377C499.829 356.079 501.597 355.741 502.933 355.729C500.947 356.141 499.023 356.397 497.289 357.509L497.119 358.155C497.825 358.907 498.237 359.061 499.233 359.295C494.777 360.505 489.405 367.739 488.577 372.297C486.601 373.441 485.821 374.645 488.577 375.187C483.527 376.539 478.121 385.779 474.691 389.597C453.829 412.821 420.725 445.965 386.617 438.495Z" fill="#C6E5F0"/>
<path d="M475.391 224.848C483.279 227.846 491.275 239.734 494.429 247.242C490.827 244.644 477.845 228.862 475.391 224.848Z" fill="#83CCE8"/>
<path d="M488.573 313.918C493.643 319.662 478.891 332.908 475.387 336.564L474.977 335.704C476.575 332.636 486.493 316.946 488.573 313.918Z" fill="#83CCE8"/>
<path d="M274.5 879.25C265.333 879.25 256.333 878 247.5 875.5C238.667 873 231.417 869.417 225.75 864.75C220.25 860.083 217.5 854.75 217.5 848.75V822H222C224.833 838.667 230.333 850.75 238.5 858.25C246.667 865.583 257.917 869.25 272.25 869.25C281.25 869.25 288.917 867 295.25 862.5C301.75 858 305 851.75 305 843.75C305 836.75 302.833 830.667 298.5 825.5C294.167 820.333 287.167 814.917 277.5 809.25L246.75 791C236.083 784.667 228.5 778.25 224 771.75C219.667 765.25 217.5 757.333 217.5 748C217.5 735.167 221.917 724.917 230.75 717.25C239.75 709.417 251.5 705.5 266 705.5C274.5 705.5 282.917 706.75 291.25 709.25C299.583 711.583 306.417 715.083 311.75 719.75C317.25 724.25 320 729.5 320 735.5V762.25H315.5C312.667 745.583 307.25 733.667 299.25 726.5C291.417 719.167 280.333 715.5 266 715.5C258.333 715.5 251.583 717.833 245.75 722.5C239.917 727.167 237 733.25 237 740.75C237 747.583 239.083 753.25 243.25 757.75C247.583 762.25 254.75 767.5 264.75 773.5L295.5 791.75C306.833 798.583 314.833 804.917 319.5 810.75C324.167 816.583 326.5 824 326.5 833C326.5 847 321.833 858.25 312.5 866.75C303.167 875.083 290.5 879.25 274.5 879.25Z" fill="#0D3859"/>
<defs>
<linearGradient id="paint0_linear_2459_140" x1="287.967" y1="302.296" x2="289.031" y2="335.954" gradientUnits="userSpaceOnUse">
<stop stop-color="#59BBE5"/>
<stop offset="1" stop-color="#89DBF4"/>
</linearGradient>
<linearGradient id="paint1_linear_2459_140" x1="295.588" y1="647.428" x2="341.416" y2="628.766" gradientUnits="userSpaceOnUse">
<stop stop-color="#7F5C57"/>
<stop offset="1" stop-color="#BE9D7B"/>
</linearGradient>
<linearGradient id="paint2_linear_2459_140" x1="249.475" y1="465.275" x2="267.875" y2="399.616" gradientUnits="userSpaceOnUse">
<stop stop-color="#79BDD0"/>
<stop offset="1" stop-color="#ACD2DD"/>
</linearGradient>
</defs>
</svg>
